<?xml version="1.0" encoding="UTF-8" standalone="no"?>
<!DOCTYPE svg PUBLIC "-//W3C//DTD SVG 1.1//EN" "http://www.w3.org/Graphics/SVG/1.1/DTD/svg11.dtd">
<svg width="100%" height="100%" viewBox="0 0 750 500" version="1.1" xmlns="http://www.w3.org/2000/svg" xmlns:xlink="http://www.w3.org/1999/xlink" xml:space="preserve" xmlns:serif="http://www.serif.com/" style="fill-rule:evenodd;clip-rule:evenodd;stroke-linejoin:round;stroke-miterlimit:2;">
    <g id="OBJECTS">
        <g transform="matrix(2.42697,-106.787,-106.787,-2.42697,91.4016,230.215)">
            <path d="M0.887,0.65C0.884,0.689 0.887,0.728 0.891,0.768C0.894,0.802 0.897,0.836 0.895,0.869C0.893,0.943 0.866,1.023 0.8,1.056C0.779,1.067 0.753,1.073 0.737,1.091C0.721,1.108 0.718,1.132 0.714,1.154C0.684,1.374 0.673,1.597 0.681,1.819C0.686,1.979 0.615,2.583 0.543,2.492C0.464,2.229 0.455,1.887 0.447,1.612C0.403,-0.057 0.44,-1.137 0.543,-2.474C0.544,-2.49 0.544,-2.506 0.545,-2.522C0.546,-2.573 0.547,-2.624 0.575,-2.665C0.621,-2.427 0.668,-2.186 0.665,-1.943C0.665,-1.919 0.664,-1.896 0.663,-1.872C0.661,-1.789 0.658,-1.705 0.676,-1.623C0.695,-1.536 0.736,-1.455 0.755,-1.367C0.784,-1.229 0.755,-1.083 0.781,-0.944C0.799,-0.845 0.846,-0.753 0.859,-0.653C0.871,-0.565 0.857,-0.474 0.843,-0.383C0.822,-0.245 0.801,-0.109 0.872,0.007C0.899,0.05 0.937,0.087 0.959,0.132C0.977,0.17 0.984,0.208 0.983,0.247C0.98,0.376 0.897,0.514 0.887,0.65Z" style="fill:url(#_Linear1);fill-rule:nonzero;"/>
        </g>
        <g transform="matrix(1.61798,-87.3708,-87.3708,-1.61798,735.192,201.475)">
            <path d="M1.074,0.417C1.043,0.513 0.981,0.596 0.914,0.673C0.878,0.714 0.84,0.754 0.818,0.803C0.782,0.883 0.792,0.974 0.791,1.061C0.791,1.148 0.775,1.245 0.706,1.299C0.657,0.726 0.684,0.139 0.682,-0.436C0.681,-0.642 0.68,-0.848 0.68,-1.053C0.679,-1.136 0.679,-1.22 0.705,-1.299C0.77,-1.228 0.797,-1.131 0.811,-1.036C0.825,-0.941 0.827,-0.844 0.853,-0.752C0.872,-0.683 0.904,-0.617 0.924,-0.548C0.95,-0.463 0.959,-0.372 0.949,-0.283C0.939,-0.184 0.908,-0.078 0.955,0.01C0.978,0.053 1.016,0.085 1.044,0.124C1.08,0.176 1.095,0.239 1.094,0.302C1.093,0.341 1.086,0.38 1.074,0.417Z" style="fill:url(#_Linear2);fill-rule:nonzero;"/>
        </g>
        <g transform="matrix(0,-42.8764,-42.8764,0,203.458,90.307)">
            <path d="M1.407,0.699C1.304,0.864 1.132,0.99 1.079,1.177C1.043,1.304 1.067,1.439 1.073,1.571C1.084,1.815 1.024,2.067 0.879,2.263C0.865,2.282 0.847,2.302 0.824,2.302C0.788,2.304 0.769,2.26 0.761,2.225C0.737,2.12 0.721,2.014 0.707,1.908C0.533,0.564 0.67,-0.949 0.677,-2.305C0.914,-2.204 1.074,-1.945 1.059,-1.688C1.048,-1.51 0.962,-1.341 0.966,-1.162C0.971,-0.936 1.118,-0.742 1.24,-0.552C1.36,-0.365 1.463,-0.163 1.506,0.055C1.518,0.121 1.525,0.189 1.525,0.256C1.525,0.412 1.489,0.567 1.407,0.699Z" style="fill:url(#_Linear3);fill-rule:nonzero;"/>
        </g>
        <g transform="matrix(0.808989,-105.978,-105.978,-0.808989,533.347,127.85)">
            <path d="M0.982,0.251C0.951,0.312 0.907,0.367 0.89,0.433C0.88,0.471 0.88,0.511 0.88,0.55C0.88,0.581 0.879,0.612 0.875,0.642C0.866,0.702 0.838,0.759 0.797,0.804L0.781,0.515C0.777,0.16 0.77,-0.195 0.761,-0.55C0.759,-0.636 0.757,-0.727 0.795,-0.804C0.829,-0.781 0.839,-0.737 0.843,-0.697C0.852,-0.625 0.851,-0.552 0.841,-0.48C0.839,-0.465 0.837,-0.448 0.843,-0.434C0.848,-0.42 0.86,-0.41 0.869,-0.399C0.893,-0.369 0.896,-0.327 0.897,-0.289C0.899,-0.236 0.902,-0.183 0.904,-0.129C0.905,-0.097 0.907,-0.064 0.922,-0.035C0.94,-0.001 0.976,0.022 0.996,0.055C1.01,0.078 1.016,0.104 1.016,0.131C1.015,0.172 1.001,0.214 0.982,0.251Z" style="fill:url(#_Linear4);fill-rule:nonzero;"/>
        </g>
    </g>
    <defs>
        <linearGradient id="_Linear1" x1="0" y1="0" x2="1" y2="0" gradientUnits="userSpaceOnUse" gradientTransform="matrix(1,-3.46945e-18,-3.46945e-18,-1,0,-0.0821429)"><stop offset="0" style="stop-color:rgb(250,202,216);stop-opacity:1"/><stop offset="0.46" style="stop-color:rgb(201,185,221);stop-opacity:1"/><stop offset="1" style="stop-color:rgb(157,170,223);stop-opacity:1"/></linearGradient>
        <linearGradient id="_Linear2" x1="0" y1="0" x2="1" y2="0" gradientUnits="userSpaceOnUse" gradientTransform="matrix(1,3.46945e-18,3.46945e-18,-1,0,4.82775e-06)"><stop offset="0" style="stop-color:rgb(250,202,216);stop-opacity:1"/><stop offset="0.46" style="stop-color:rgb(201,185,221);stop-opacity:1"/><stop offset="1" style="stop-color:rgb(157,170,223);stop-opacity:1"/></linearGradient>
        <linearGradient id="_Linear3" x1="0" y1="0" x2="1" y2="0" gradientUnits="userSpaceOnUse" gradientTransform="matrix(1,0,0,-1,0,-0.0010851)"><stop offset="0" style="stop-color:rgb(250,202,216);stop-opacity:1"/><stop offset="0.46" style="stop-color:rgb(201,185,221);stop-opacity:1"/><stop offset="1" style="stop-color:rgb(157,170,223);stop-opacity:1"/></linearGradient>
        <linearGradient id="_Linear4" x1="0" y1="0" x2="1" y2="0" gradientUnits="userSpaceOnUse" gradientTransform="matrix(1,0,0,-1,0,-9.25214e-06)"><stop offset="0" style="stop-color:rgb(250,202,216);stop-opacity:1"/><stop offset="0.46" style="stop-color:rgb(201,185,221);stop-opacity:1"/><stop offset="1" style="stop-color:rgb(157,170,223);stop-opacity:1"/></linearGradient>
    </defs>
</svg>
